<svg xmlns="http://www.w3.org/2000/svg" xmlns:xlink="http://www.w3.org/1999/xlink" width="148" height="103" viewBox="0 0 148 103">
    <defs>
        <path id="1qqbylyzya" d="M73.662 102.123L0 102.123 0 0 73.662 0 147.324 0 147.324 102.123 73.662 102.123z"/>
    </defs>
    <g fill="none" fill-rule="evenodd" opacity=".221">
        <g>
            <g style="mix-blend-mode:soft-light" transform="translate(-107 -10577) translate(107 10577)">
                <mask id="ufz9jf9zcb" fill="#fff">
                    <use xlink:href="#1qqbylyzya"/>
                </mask>
                <path fill="#FFF" d="M9.157 92.983h129.001V9.132h-129v83.851zm133.588 9.14H4.578c-2.52 0-4.577-2.044-4.577-4.574V4.566C0 2.053 2.058 0 4.578 0h138.167c2.52 0 4.578 2.053 4.578 4.566v92.983c0 2.53-2.058 4.574-4.578 4.574z" mask="url(#ufz9jf9zcb)"/>
                <path fill="#FFF" d="M16.576 9.134l49.69 44.285c4.217 3.752 10.576 3.76 14.793 0l49.69-44.285H16.575zm57.09 56.24c-4.83 0-9.66-1.718-13.508-5.144L1.53 7.97C.11 6.713-.377 4.71.303 2.943.984 1.167 2.69.003 4.58.003h138.166c1.899 0 3.596 1.164 4.276 2.94.672 1.768.193 3.77-1.227 5.027L87.158 60.23c-3.848 3.426-8.67 5.143-13.492 5.143z" mask="url(#ufz9jf9zcb)"/>
                <path fill="#FFF" d="M142.742 101.484H4.584c-1.907 0-3.603-1.173-4.284-2.94-.672-1.768-.193-3.77 1.227-5.027L52.98 47.65c1.89-1.685 4.789-1.509 6.47.36 1.688 1.885 1.528 4.775-.362 6.459L16.572 92.352h114.173L88.238 54.47c-1.89-1.684-2.05-4.574-.36-6.46 1.68-1.868 4.577-2.044 6.46-.36l51.453 45.868c1.42 1.256 1.907 3.259 1.235 5.026-.68 1.768-2.377 2.94-4.284 2.94" mask="url(#ufz9jf9zcb)"/>
            </g>
        </g>
    </g>
</svg>
