<svg xmlns="http://www.w3.org/2000/svg" width="300" height="6" viewBox="0 0 300 6">
    <g fill="none" fill-rule="evenodd">
        <g fill="#FFF">
            <g>
                <path d="M4.315 1.54c0 .815-.66 1.476-1.477 1.476-.815 0-1.476-.66-1.476-1.477 0-.816.66-1.477 1.476-1.477s1.477.66 1.477 1.477M4.315 11.728c0 .816-.66 1.477-1.477 1.477-.815 0-1.476-.661-1.476-1.477 0-.816.66-1.478 1.476-1.478s1.477.662 1.477 1.478M4.315 21.916c0 .816-.66 1.478-1.477 1.478-.815 0-1.476-.662-1.476-1.478s.66-1.477 1.476-1.477 1.477.661 1.477 1.477M4.315 32.105c0 .816-.66 1.477-1.477 1.477-.815 0-1.476-.66-1.476-1.477 0-.816.66-1.477 1.476-1.477s1.477.66 1.477 1.477M4.315 162.82c0 .816-.66 1.477-1.477 1.477-.815 0-1.476-.661-1.476-1.477 0-.816.66-1.478 1.476-1.478s1.477.662 1.477 1.478M4.315 173.009c0 .816-.66 1.477-1.477 1.477-.815 0-1.476-.661-1.476-1.477 0-.817.66-1.478 1.476-1.478s1.477.661 1.477 1.478M4.315 183.197c0 .816-.66 1.478-1.477 1.478-.815 0-1.476-.662-1.476-1.478s.66-1.477 1.476-1.477 1.477.661 1.477 1.477M4.315 193.386c0 .816-.66 1.477-1.477 1.477-.815 0-1.476-.661-1.476-1.477 0-.816.66-1.478 1.476-1.478s1.477.662 1.477 1.478M4.315 243.341c0 .816-.66 1.477-1.477 1.477-.815 0-1.476-.66-1.476-1.477 0-.816.66-1.477 1.476-1.477s1.477.66 1.477 1.477M4.315 253.53c0 .816-.66 1.477-1.477 1.477-.815 0-1.476-.661-1.476-1.477 0-.817.66-1.478 1.476-1.478s1.477.661 1.477 1.478M4.315 263.718c0 .816-.66 1.478-1.477 1.478-.815 0-1.476-.662-1.476-1.478s.66-1.477 1.476-1.477 1.477.661 1.477 1.477M4.315 273.907c0 .816-.66 1.477-1.477 1.477-.815 0-1.476-.661-1.476-1.477 0-.816.66-1.478 1.476-1.478s1.477.662 1.477 1.478M4.315 82.18c0 .816-.66 1.477-1.477 1.477-.815 0-1.476-.661-1.476-1.478 0-.816.66-1.477 1.476-1.477s1.477.661 1.477 1.477M4.315 92.368c0 .816-.66 1.477-1.477 1.477-.815 0-1.476-.66-1.476-1.477 0-.816.66-1.477 1.476-1.477s1.477.66 1.477 1.477M4.315 102.557c0 .816-.66 1.477-1.477 1.477-.815 0-1.476-.661-1.476-1.477 0-.816.66-1.478 1.476-1.478s1.477.662 1.477 1.478M4.315 112.745c0 .817-.66 1.478-1.477 1.478-.815 0-1.476-.661-1.476-1.478 0-.816.66-1.477 1.476-1.477s1.477.661 1.477 1.477M.482 56.344L.146 56.007 3.512 52.64 3.848 52.976zM2.165 58.32L1.829 57.984 5.194 54.617 5.531 54.953zM.482 137.421L.146 137.085 3.512 133.717 3.848 134.054zM2.165 139.397L1.829 139.061 5.194 135.694 5.531 136.03zM.482 221.179L.146 220.843 3.512 217.476 3.848 217.812zM2.165 223.155L1.829 222.819 5.194 219.452 5.531 219.788zM.482 298.081L.146 297.744 3.512 294.377 3.848 294.713zM2.165 300.057L1.829 299.72 5.194 296.354 5.531 296.69z" transform="translate(-39 -10727) rotate(90 -5194.25 5533.25)"/>
            </g>
        </g>
    </g>
</svg>
