<svg width="215" height="75" xmlns="http://www.w3.org/2000/svg">
 <defs>
  <linearGradient id="dij4pwkp1a" x1="-13.746%" x2="71.392%" y1="4.105%" y2="62.454%">
   <stop offset="0%"/>
   <stop offset="100%" stop-opacity="0"/>
  </linearGradient>
 </defs>
 <g>
  <title>background</title>
  <rect x="-1" y="-1" width="217" height="77" id="canvas_background" fill="none"/>
 </g>
 <g>
  <title>Layer 1</title>
  <g fill="none" fill-rule="evenodd" id="svg_1">
   <g id="svg_2">
    <g id="svg_3">
     <path fill="url(#dij4pwkp1a)" opacity="0.347" d="m188.879,35.104l180.001,180.77l-189.915,1.089l-162.848,-163.543l4.971,-2.753l1.606,-21.109l-6.694,-6.723l7.498,-0.605l16.467,2.017l2.176,1.647l7.33,7.361l8.167,0.068l4.452,1.983l18.041,18.118l4.518,-1.647l1.141,-7.393l-15.935,-16.003l4.452,-6.655l1.506,-5.11l9.608,9.649l5.989,-4.539l11.548,11.597l10.912,1.109l15.162,15.227l-0.401,-6.908l-5.674,-5.697l8.786,-2.521l2.26,-2.118l2.837,2.849l9.262,-1.425l10.864,10.91l2.517,-3.586l-6.603,-6.63l9.088,-2.723l1.556,-6.656l11.021,11.068l3.389,-2.294l3.313,-0.605l7.632,1.781z" id="svg_4"/>
     <path fill="#FFF" d="m28.764,41.183c10.14,0 15.254,-3.454 15.254,-9.818c0,-6.41 -5.114,-9.865 -15.254,-9.865l-12.764,0l0,1.273c3.44,0 4.255,2.364 4.255,5.228l0,18.865c0,2.863 -0.815,5.227 -4.255,5.227l0,1.228l17.065,0l0,-1.228c-3.44,0 -5.16,-1.773 -5.16,-5.227l0,-5.683l0.86,0l-0.001,0zm-0.18,-17.864c5.34,0 7.423,3.09 7.423,8.046c0,4.909 -2.082,8 -7.424,8l-0.679,0l0,-16.045l0.68,0l0,-0.001zm39.786,27.638c-1.042,0.5 -2.037,0.454 -2.535,-0.137c-0.453,-0.59 -0.725,-2.409 -0.996,-4c0,0 -0.226,-1.818 -0.86,-6.41c-0.815,-5.727 -3.802,-8.136 -11.045,-8.136c-2.58,0 -6.518,0.727 -7.604,3.682c-0.634,1.59 -0.136,2.864 1.041,3.455c1.268,0.59 3.123,0.454 4.21,-1.5c-1.766,-1.455 -0.453,-4.273 2.399,-4.046c2.263,0 3.078,2.409 3.485,4.727c0.498,3.137 -2.127,2.228 -6.382,3.091c-5.341,1.091 -7.016,4.183 -6.382,7.5c0.633,3.32 4.164,4.547 7.92,4.547c2.264,0 4.799,-0.546 6.383,-3c0.679,2.181 3.53,3 5.975,3c2.535,0 3.938,-0.819 4.753,-1.773c-0.136,-0.455 -0.181,-0.5 -0.362,-1zm-13.534,-0.046c-1.675,0.455 -3.712,-0.818 -4.029,-2.909c-0.317,-2.318 1.041,-4 2.987,-4.591c2.309,-0.637 2.807,-0.864 3.169,-1.591c0.181,1.136 0.362,2.818 0.498,4.455c0.136,2.182 -0.453,4.136 -2.625,4.636zm19.917,-35.911c-2.761,0 -4.662,1.818 -4.662,4.137c0,2.272 1.855,4.136 4.616,4.136c-0.362,1.728 -1.176,3.091 -2.715,4.41l0.679,1.045c3.711,-1.364 6.699,-5.182 6.699,-9.591c0,-2.319 -1.856,-4.137 -4.617,-4.137zm17.653,31.866l0,-25.366l-1.222,0c-2.762,2.455 -7.378,3.546 -10.004,3.546l0,1.273c3.44,0 3.893,2.364 3.893,5.227l0,15.32c0,2.863 -0.453,5.227 -3.893,5.227l0,1.228l15.118,0l0,-1.228c-3.485,0 -3.892,-2.364 -3.892,-5.227zm29.602,4.09c-1.04,0.5 -2.036,0.455 -2.534,-0.136c-0.453,-0.59 -0.725,-2.409 -0.996,-4c0,0 -0.227,-1.818 -0.86,-6.41c-0.815,-5.727 -3.802,-8.136 -11.045,-8.136c-2.58,0 -6.518,0.727 -7.604,3.682c-0.634,1.59 -0.136,2.864 1.041,3.455c1.267,0.59 3.123,0.454 4.21,-1.5c-1.766,-1.455 -0.453,-4.273 2.399,-4.046c2.263,0 3.078,2.409 3.485,4.727c0.498,3.137 -2.127,2.228 -6.382,3.091c-5.341,1.091 -7.016,4.183 -6.383,7.5c0.634,3.32 4.165,4.547 7.922,4.547c2.263,0 4.798,-0.546 6.382,-3c0.679,2.181 3.53,3 5.975,3c2.535,0 3.938,-0.819 4.753,-1.773c-0.136,-0.455 -0.182,-0.5 -0.363,-1l0,-0.001zm-13.534,-0.045c-1.674,0.455 -3.711,-0.818 -4.028,-2.909c-0.317,-2.318 1.041,-4 2.987,-4.591c2.309,-0.637 2.807,-0.864 3.169,-1.591c0.18,1.136 0.362,2.818 0.498,4.455c0.136,2.182 -0.453,4.136 -2.626,4.636zm42.322,-4.045s-0.226,-1.864 -0.86,-6.41c-0.814,-5.728 -3.259,-8.182 -7.83,-8.182c-3.667,0 -5.84,1.636 -7.197,3.545l0,-3.545l-1.222,0c-2.716,2.409 -7.333,3.545 -9.959,3.545l0,1.228c3.44,0 3.893,2.364 3.893,5.227l0,4.592c0,2.863 -0.452,5.227 -3.893,5.227l0,1.228l14.892,0l0,-1.228c-3.44,0 -3.711,-2.364 -3.711,-5.227l0,-5.5c0,-3.046 1.131,-5.456 3.847,-5.456c3.123,0 3.44,2.455 3.848,5.137c0.271,1.682 0.905,5.819 0.905,5.819c0.317,2.773 0.271,5.227 -3.169,5.227l0,1.228l14.53,0l0,-1.228c-3.44,0 -3.712,-2.545 -4.074,-5.227zm18.242,1.409c-0.68,1.136 -1.63,1.682 -2.807,1.5c-1.086,-0.227 -1.855,-0.818 -1.855,-2.955l0,-12.319l4.798,0l0,-1.773l-4.798,0l0,-7.682l-1.404,0c-0.95,4.91 -4.979,7.455 -9.46,7.682l0,1.773l3.53,0l0,11.955c0,4.864 2.943,7.274 6.564,7.274c3.35,0 5.115,-2.182 6.292,-5l-0.86,-0.455zm22.768,-2.091c-3.984,4.318 -12.72,3.59 -13.806,-2.273l13.987,-2.364c0.226,-6 -3.848,-9.273 -9.913,-9.273c-6.79,0 -12.267,4.273 -11.633,11.591c0.453,5.455 4.979,9.865 11.814,9.865c5.567,0 8.826,-3.5 10.32,-6.91c0,-0.045 -0.77,-0.636 -0.77,-0.636l0.001,0zm-10.547,-12.274c3.123,-0.272 4.12,2.591 3.893,6.955l-7.424,1.273c-0.543,-4.318 0.68,-7.955 3.531,-8.228z" id="svg_5"/>
    </g>
   </g>
  </g>
 </g>
</svg>