<svg xmlns="http://www.w3.org/2000/svg" width="61" height="61" viewBox="0 0 61 61">
    <defs>
        <linearGradient id="sft4u2iv7b" x1="50%" x2="50%" y1="0%" y2="100%">
            <stop offset="0%" stop-color="#20B038"/>
            <stop offset="100%" stop-color="#60D66A"/>
        </linearGradient>
        <linearGradient id="69051knytc" x1="50%" x2="50%" y1="0%" y2="100%">
            <stop offset="0%" stop-color="#F9F9F9"/>
            <stop offset="100%" stop-color="#FFF"/>
        </linearGradient>
        <filter id="rrfa28zcea" width="122.4%" height="122.4%" x="-11.2%" y="-11.2%" filterUnits="objectBoundingBox">
            <feOffset dy="1" in="SourceAlpha" result="shadowOffsetOuter1"/>
            <feGaussianBlur in="shadowOffsetOuter1" result="shadowBlurOuter1" stdDeviation="1"/>
            <feColorMatrix in="shadowBlurOuter1" result="shadowMatrixOuter1" values="0 0 0 0 0 0 0 0 0 0 0 0 0 0 0 0 0 0 0.5 0"/>
            <feMerge>
                <feMergeNode in="shadowMatrixOuter1"/>
                <feMergeNode in="SourceGraphic"/>
            </feMerge>
        </filter>
    </defs>
    <g fill="none" fill-rule="evenodd">
        <g>
            <g filter="url(#rrfa28zcea)" transform="translate(-159 -451) translate(161 452)">
                <g>
                    <g fill="url(#sft4u2iv7b)" transform="matrix(1 0 0 -1 1.193 56.163)">
                        <g>
                            <g>
                                <g>
                                    <path d="M.236 27.602c-.001-4.756 1.253-9.401 3.637-13.495L.008.12 14.45 3.873c3.98-2.15 8.46-3.284 13.02-3.285h.012c15.015 0 27.239 12.11 27.245 26.993.003 7.213-2.829 13.995-7.973 19.097-5.144 5.102-11.985 7.913-19.273 7.916-15.017 0-27.24-12.108-27.246-26.992M27.483.588"/>
                                </g>
                            </g>
                        </g>
                    </g>
                    <g fill="url(#69051knytc)" transform="matrix(1 0 0 -1 .11 57.102)">
                        <g>
                            <g>
                                <g>
                                    <path d="M.346 28.55c-.002-4.928 1.297-9.739 3.767-13.98L.109.083 15.07 3.97C19.193 1.742 23.834.568 28.557.566h.012c15.555 0 28.217 12.545 28.223 27.962.003 7.471-2.93 14.497-8.259 19.782-5.328 5.285-12.414 8.197-19.964 8.2C13.012 56.51.352 43.967.346 28.55zm8.91-13.249l-.559.88c-2.348 3.7-3.588 7.976-3.586 12.367.005 12.814 10.528 23.24 23.467 23.24 6.266-.003 12.155-2.424 16.584-6.816 4.43-4.393 6.867-10.232 6.865-16.443C52.02 15.715 41.498 5.29 28.569 5.29h-.009c-4.21.002-8.339 1.122-11.94 3.24l-.856.503-8.879-2.307 2.37 8.576zM28.569.566zm0 0z"/>
                                </g>
                            </g>
                        </g>
                    </g>
                </g>
                <path fill="#FFF" d="M21.626 40.76c-.528 1.163-1.084 1.187-1.587 1.207-.41.018-.882.017-1.351.017-.47 0-1.235-.176-1.88-.875-.647-.7-2.47-2.39-2.47-5.828 0-3.44 2.528-6.762 2.88-7.229.353-.466 4.879-7.747 12.047-10.549 5.957-2.328 7.169-1.865 8.462-1.748 1.293.116 4.172 1.69 4.76 3.322.588 1.632.588 3.03.411 3.323-.176.291-.646.466-1.351.815-.706.35-4.173 2.04-4.82 2.274-.646.233-1.116.35-1.586-.35s-1.82-2.273-2.232-2.74c-.412-.466-.823-.524-1.528-.175-.706.35-2.977 1.088-5.671 3.469-2.097 1.852-3.512 4.14-3.924 4.84-.41.698-.044 1.077.31 1.425.317.313.705.816 1.058 1.224.352.408.47.7.705 1.166.235.466.117.874-.06 1.224-.175.35-1.546 3.806-2.173 5.188" transform="matrix(1 0 0 -1 0 57.623)"/>
            </g>
        </g>
    </g>
</svg>
